<?xml version="1.0" encoding="utf-8"?>
<!-- Generator: Adobe Illustrator 26.3.1, SVG Export Plug-In . SVG Version: 6.00 Build 0)  -->
<svg version="1.1" id="Layer_1" xmlns="http://www.w3.org/2000/svg" xmlns:xlink="http://www.w3.org/1999/xlink" x="0px" y="0px"
	 viewBox="0 0 300 300" style="enable-background:new 0 0 300 300;" xml:space="preserve">
<g>
	<path d="M264.6,232.2c12.2,1.4,18,7.5,19.9,20.6c7.3,2.4,12.3,7.2,14.1,15c2.7,12-6.2,23.6-18.5,24.1c-0.7,0-1.4,0-2.2,0
		c-85,0-169.9,0-254.9,0c-7.2,0-13.1-2.4-17.4-8.3c-7.2-9.9-3.8-23.8,7.2-29.3c1.2-0.6,2.5-1.1,3.7-1.6c1.8-13,7.7-19.1,20.1-20.5
		c0-0.9,0-1.9,0-2.9c0-28.6,0-57.2,0-85.8c0-2.1-0.6-3.4-2.3-4.6c-4.9-3.6-9.8-7.2-14.6-10.9c-3.9-3-4-6.4,0-9.3
		c42.3-30.9,84.7-61.9,126.9-92.8c2.8-2,5.1-2,7.8,0c10.6,7.9,21.3,15.6,32,23.4c1.1,0.8,2.1,1.5,3.5,2.5c0-6.1,0-11.7,0-17.5
		c-3.9-0.8-4.9-3.5-4.8-7.3c0.2-5.6,0-11.1,0.1-16.7c0-4.1,1.8-5.9,5.9-5.9c15.9,0,31.8,0,47.7,0c4.1,0,5.9,1.8,5.9,5.9
		c0,5.6,0,11.2,0,16.7c0,4.8-0.5,5.6-5,7.5c0,17.4,0,34.8,0.1,52.3c0,1,1.2,2.3,2.1,3c12.8,9.4,25.6,18.8,38.5,28.2
		c5.3,3.9,5.3,6.8,0,10.8c-4.7,3.5-9.5,7-14.1,10.6c-0.9,0.7-1.8,2.1-1.8,3.2c-0.1,29.5-0.1,59.1-0.1,88.6
		C264.5,231.4,264.6,231.7,264.6,232.2z M254.5,281.7c0-0.9,0-1.5,0-2.1c0-45.5,0-91,0.1-136.6c0-2.1-1-3.1-2.5-4.2
		c-26.1-19-52.2-38-78.3-57c-7.7-5.6-15.5-11.3-23.2-16.9c-0.6,0.4-1,0.7-1.4,1c-33.6,24.5-67.2,48.9-100.9,73.3
		c-1.6,1.2-1.8,2.5-1.8,4.2c0,45,0,90,0,135c0,1.1,0,2.2,0,3.2c36.6,0,72.7,0,109,0c0-1.4,0-2.6,0-3.8c0-35.8,0-71.6,0-107.5
		c0-6.3,1.3-7.5,7.7-7.5c21.5,0,42.9,0,64.4,0c5.9,0,7.2,1.4,7.2,7.3c0,35.9,0,71.8,0,107.8c0,1.2,0,2.4,0,3.7
		C241.4,281.7,247.8,281.7,254.5,281.7z M165.5,281.7c19.9,0,39.5,0,59.2,0c0-36.3,0-72.5,0-108.7c-19.8,0-39.5,0-59.2,0
		C165.5,209.3,165.5,245.4,165.5,281.7z M150.5,35.2C110.2,64.6,70.2,93.9,30,123.3c4.1,3.1,7.8,5.8,11.5,8.6c1.5-1,2.7-1.9,4-2.8
		c33.2-24.2,66.4-48.3,99.6-72.5c5.1-3.7,5.7-3.7,10.8,0c33.3,24.2,66.6,48.4,99.9,72.7c1.2,0.9,2.5,1.8,3.7,2.6
		c3.9-2.9,7.5-5.7,11.5-8.6C230.6,93.8,190.6,64.6,150.5,35.2z M229.5,80.7c0-15.9,0-31.2,0-46.5c-9.9,0-19.6,0-29.5,0
		c0,8.1,0,16,0,23.9c0,0.6,0.4,1.4,0.9,1.7C210.4,66.7,219.8,73.6,229.5,80.7z M36.4,242.3c-6.9,0.5-10.9,5.8-9.4,12.2
		c1.2,5.2-0.4,7.2-5.8,7.5c-4.9,0.3-9,4.2-9.4,9c-0.4,5,3,10,8,10.5c5.5,0.5,11,0.1,16.6,0.1C36.4,268.5,36.4,255.5,36.4,242.3z
		 M264.6,281.8c5.4,0,10.4,0.2,15.5,0c5.2-0.2,9.2-4.6,9.2-9.8c0-5.2-4-9.5-9.2-9.9c-6.1-0.5-7.2-1.9-5.9-8.1
		c1.2-6-3.6-11.8-9.6-11.4C264.6,255.5,264.6,268.5,264.6,281.8z M195.3,14.3c0,3.2,0,6.4,0,9.6c13.1,0,26.2,0,39.1,0
		c0-3.3,0-6.5,0-9.6C221.3,14.3,208.5,14.3,195.3,14.3z"/>
	<path d="M135.6,202.8c0,10.9,0,21.9,0,32.8c0,4.9-1.6,6.6-6.4,6.6c-18.9,0-37.8,0-56.7,0c-4.5,0-6.2-1.7-6.2-6.1
		c0-22.3,0-44.6,0-66.9c0-4.5,1.7-6.2,6.1-6.2c19,0,38,0,57,0c4.6,0,6.3,1.7,6.3,6.4C135.6,180.5,135.6,191.6,135.6,202.8z
		 M76.3,197.4c6.7,0,13.1,0,19.4,0c0-8.3,0-16.4,0-24.4c-6.6,0-13,0-19.4,0C76.3,181.1,76.3,189.1,76.3,197.4z M125.5,197.5
		c0-8.3,0-16.4,0-24.4c-6.6,0-13.1,0-19.4,0c0,8.3,0,16.3,0,24.4C112.5,197.5,118.9,197.5,125.5,197.5z M76.3,207.6
		c0,8.3,0,16.4,0,24.5c6.6,0,13,0,19.4,0c0-8.3,0-16.4,0-24.5C89.2,207.6,82.9,207.6,76.3,207.6z M106,207.6c0,8.4,0,16.4,0,24.5
		c6.6,0,13,0,19.4,0c0-8.3,0-16.3,0-24.5C118.9,207.6,112.5,207.6,106,207.6z"/>
	<path d="M180.1,217.4c2.7-0.1,5,2.1,5,4.8c0.1,2.7-2.1,5-4.8,5c-2.7,0.1-5-2.1-5-4.8C175.2,219.8,177.4,217.5,180.1,217.4z"/>
</g>
</svg>
