<?xml version="1.0" encoding="utf-8"?>
<!-- Generator: Adobe Illustrator 26.3.1, SVG Export Plug-In . SVG Version: 6.00 Build 0)  -->
<svg version="1.1" id="Layer_1" xmlns="http://www.w3.org/2000/svg" xmlns:xlink="http://www.w3.org/1999/xlink" x="0px" y="0px"
	 viewBox="0 0 300 300" style="enable-background:new 0 0 300 300;" xml:space="preserve">
<g>
	<path d="M295.4,140.1c-9.8,16-19.6,32-29.5,47.9c-1.5,2.4-3.4,4.6-5.6,6.4c-20.6,17.3-41.3,34.5-61.9,51.8
		c-2.6,2.2-5.4,3.2-8.8,3.2c-24.3-0.1-48.6,0.2-73-0.2c-5.7-0.1-9.3,1.9-12.5,6.7c2.1,2.1,4.5,4.3,6.7,6.6c3.7,3.8,3.7,7,0,10.7
		c-7.4,7.6-14.8,15.2-22.3,22.7c-1.4,1.4-3.5,2.6-5.4,2.6c-4.5,0.2-7.2-5.2-4.8-9.2c0.8-1.4,2-2.5,3.2-3.7
		c5.6-5.8,11.2-11.5,16.8-17.2c0.1-0.1,0.2-0.3,0.1-0.2c-21.3-21.8-42.6-43.5-64.1-65.3c-5.7,5.8-11.7,11.9-17.7,18
		c-0.9,0.9-1.9,1.9-3,2.6c-2.4,1.5-5.4,1.1-7.3-0.9c-2-2-2.3-5-0.8-7.4c0.6-1,1.4-1.8,2.2-2.7c7.1-7.2,14.2-14.5,21.3-21.7
		c4.3-4.4,7.3-4.4,11.6-0.1c17.5,17.8,34.9,35.6,52.4,53.4c0.7,0.7,1.3,1.7,2.5,3.2c2.3-2.7,4.3-4.8,6.2-7.1c2.2-2.6,5-3.5,8.3-3.5
		c25.8,0.1,51.7,0.1,77.5,0c1.6,0,3.5-0.7,4.8-1.7c20.3-16.8,40.5-33.6,60.7-50.5c0.7-0.5,1.4-1.1,1.8-1.8
		c8.8-14.3,17.5-28.6,26.4-43c-3.1-2.3-6.5-1.9-9.6-1c-2.9,0.9-5.6,2.7-8.2,4.4c-1.7,1.1-3.3,2.6-4.7,4.2
		c-9.9,11.8-22.4,20-35.5,27.4c-1,0.5-1.9,1.2-3,1.8c2.3,5.7,3.2,11.3,1.6,17.1c-3.2,11.7-12.3,18.6-24.9,18.6
		c-16.8,0.1-33.7,0-50.5,0c-6.1,0-7.3,0.9-8.7,7.1c-0.8,3.4-3.4,5.5-6.5,5.2c-3.4-0.4-5.6-3.3-5.3-7c0.7-10.6,8.5-17.6,19.7-17.7
		c16.9,0,33.9,0,50.8,0c1.8,0,3.6,0,5.3-0.5c5.7-1.6,9.4-7.1,8.7-12.9c-0.7-6.4-5.2-11-11.4-11.1c-13.2-0.2-26.5-0.5-39.7,0
		c-11,0.4-21.4-1-31.6-5.3c-1.9-0.8-4-1-6.1-1c-8.3-0.1-16.7,0-25-0.1c-11.3-0.1-20.9,3.7-28.7,12.1c-1.4,1.5-2.9,3.1-4.4,4.5
		c-2.9,2.5-6.3,2.5-8.7,0c-2.2-2.4-2.2-5.9,0.2-8.6c9.2-10.6,20-18.2,34.2-19.8c2.5-0.3,5.1-0.4,7.6-0.4c4.3-0.1,8.5,0.2,12.8-0.1
		c11.5-0.8,22.6,0.7,33.2,5.4c1.4,0.6,3.1,0.7,4.7,0.7c15.7,0.1,31.4,0,47.1,0c5.6,0,11.1,0.5,16.2,3.5c0.7,0.4,2.1,0.2,2.8-0.2
		c7.7-4.6,15.5-8.9,22.8-14c4.1-2.8,7.1-7.1,10.9-10.5c4.1-3.8,8.2-7.7,12.8-10.9c8.5-6,21.8-7.3,31.1,1.1c1.6,1.4,2.8,3.3,4.2,4.9
		C295.4,137.8,295.4,138.9,295.4,140.1z"/>
	<path d="M155.7,2.3c6.1,1.1,12.4,1.8,18.3,3.5c25.7,7.3,44.6,23.3,56.9,47.3c7.1,13.9,10.3,28.7,9.8,44.3
		c-0.4,15.6-5.1,29.9-12.6,43.3c-1.9,3.3-5.3,4.4-8.2,2.8c-3-1.6-4-5-2.5-8.5c2.6-6,5.8-11.8,7.6-18c8.2-27.8,2.3-52.8-15.9-74.8
		c-13.1-15.8-30.3-24.9-50.4-27.1c-22.4-2.5-42.6,3.7-59.8,18.7C83.3,47.6,74.3,65.1,71.8,86c-1.9,16,1.4,31,8.7,45.2
		c0.7,1.4,1.5,2.7,2.1,4.1c1.4,3.4,0.4,6.7-2.5,8.2c-2.9,1.5-6.3,0.6-8.1-2.5c-2.1-3.8-4.1-7.6-5.7-11.6
		c-13.7-35.6-7.8-68,16.6-96.6c15.6-18.2,35.8-27.9,59.4-30.1c0.6-0.1,1.3-0.3,1.9-0.4C148.2,2.3,152,2.3,155.7,2.3z"/>
	<path d="M156.3,138.2c-0.2,2.6-0.1,4.8-0.4,7c-0.5,3.2-2.9,5.3-5.8,5.3c-2.9,0-5.3-2.1-5.9-5.2c-0.2-1.1-0.2-2.3-0.3-3.4
		c0-1.1,0-2.1,0-3.4c-3-0.2-5.9-0.3-8.8-0.6c-8.6-1-15.7-9.7-15.3-18.3c0.2-3.1,2.2-5.5,5.2-5.9c2.8-0.4,6.1,1.4,6.3,4.5
		c0.7,7.7,5.4,8.4,12.4,7.4c0-0.5,0.1-1.1,0.1-1.6c0-7.4,0-14.8,0-22.4c-3-0.2-5.8-0.3-8.6-0.6c-8-0.9-14.9-8.1-15.4-16.4
		c-0.3-4.3-0.2-8.7-0.2-13c0.1-11.9,7.5-19.4,19.2-19.7c1.5,0,3,0,5,0c0-1.8,0-3.4,0-5c0.1-4.5,2.5-7.3,6-7.3c3.6,0,6,2.8,6.1,7.2
		c0.1,1.5,0,3.1,0,4.8c3,0.2,5.9,0.3,8.8,0.6c8.6,1,15.7,9.6,15.3,18.3c-0.2,3.1-2.2,5.5-5.2,5.9c-2.8,0.4-6-1.4-6.3-4.5
		c-0.7-7.7-5.4-8.4-12.3-7.4c0,7.9,0,15.9,0,24c2.8,0.2,5.6,0.3,8.4,0.6c8.1,0.9,14.9,8.1,15.4,16.4c0.3,4.4,0.2,8.9,0.2,13.3
		c-0.2,11.6-7.5,19-18.9,19.4C159.8,138.2,158.2,138.2,156.3,138.2z M143.8,64.1c-2,0-3.9-0.1-5.7,0c-3.6,0.2-5.9,2.4-6.1,6
		c-0.2,4.2-0.2,8.5,0,12.7c0.1,2.8,1.7,5.1,4.5,5.6c2.3,0.4,4.8,0.1,7.3,0.1C143.8,80.3,143.8,72.4,143.8,64.1z M156.3,125.7
		c2.1,0,3.9,0.1,5.7,0c3.7-0.2,6-2.4,6.2-6.2c0.2-4,0.1-8.1,0-12.1c-0.1-3.3-2.1-5.7-5-6.1c-2.2-0.2-4.5,0-6.8,0
		C156.3,109.4,156.3,117.4,156.3,125.7z"/>
	<path d="M89.4,88.9c4.2,0,8,0,12.2,0c0,3.7,0.1,7.2-0.1,10.7c0,0.5-1.1,1.4-1.8,1.5c-2.8,0.2-5.7,0.2-8.5,0c-0.7,0-1.8-1.1-1.8-1.7
		C89.4,96,89.4,92.6,89.4,88.9z"/>
	<path d="M198.5,88.9c4.2,0,8,0,12,0c0,4.1,0,8,0,12.2c-3.7,0-7.2,0.1-10.8-0.1c-0.4,0-1.2-1-1.2-1.5
		C198.4,96.1,198.5,92.7,198.5,88.9z"/>
</g>
</svg>
