<svg class="w-auto h-16 sm:h-32" version="1.1" id="Layer_1" x="0px" y="0px" viewBox="0 0 1431.2 370.5" style="enable-background:new 0 0 1431.2 370.5" xml:space="preserve" xmlns="http://www.w3.org/2000/svg"><style type="text/css">
	.st0{fill:#009444;}
</style><path d="M39.8,200.8l0.5-1.3v-0.3l0.2-0.2h0.2l0.2-0.2l0.6-0.9v-0.5l0.2-0.2l0.9-1.1l0.3-0.2l0.6-0.9l0.5,0.2l0.5-0.5l0.2-0.5v-1.1
	v-0.3l0.3-0.5l0.6-1.3l1.1-0.6l0.6-0.3l0.8-0.2l0.9-0.2l1.4-0.9l0.9-0.8l0.6-0.3l0.8-0.2h0.2l0.6-0.2v-0.2l0.8-0.6l0.3-0.2l1.9-1.7
	l0.2-0.2l0.3-0.3l0.5-0.6l0.2-0.6l-0.3-0.8H57v-0.3l-0.2-0.2v-0.5l-0.2-1.1l0.2-0.3v-0.2l0.2-0.3l0.2-0.5l-0.5-0.9h-0.2h-0.2
	l-0.6-1.3l-0.2-0.5l-0.2-0.3l-0.2-0.6l-1.3-0.2l0.2-0.5l0.3-0.6v-0.5v-0.6v-0.6v-0.2l-0.2-0.8l-0.2-0.5l-0.2-0.2l-0.3-0.6l-0.8-0.6
	l-1.7-0.3l-0.8-0.9l-0.5-0.3l-1.7-1.1l-0.5-0.8v-0.5v-0.3v-0.8l0.3-0.5l0.3-0.6l0.5-1.6v-0.8l-0.3-0.6l-0.8-0.2l-0.2-0.2l-0.8-0.2
	l-0.3-0.2l-1.7-0.5v-0.5l0.3-0.5l0.3-0.3v-0.2V158l0.3-0.6l-0.2-0.5v-0.2v-0.3v-0.3l0.2-0.5l0.2-0.2l0.3-0.3l0.2-0.3l0.3-0.2
	l0.2-0.5v-0.5l-0.2-0.3v-0.8l-0.2-0.2l-0.2-0.8v-0.5v-0.3v-0.8l0.2-0.3l-0.2-0.6v-0.5v-0.6v-0.3v-1.3l-0.2-0.2l-0.2-1.1h-0.2
	l-0.5-0.9l3.1-0.8l1.1-0.2l1.7-0.3l1.1-0.5l1.4-0.5l1.7-0.6l2.5-0.8h0.5l0.9-0.5h0.2h0.5l0.3-0.2h0.3l0.8-0.2l1.6-0.3l1.3-0.5
	l0.5-0.2l1.7-0.2l1.3-0.3h0.3l3.5-1.3h0.6l3.6-0.6l1.1-0.2h0.6h0.2l0.9-0.2l1.7-0.2h0.3l0.6,0.3h0.5l1.1-0.2h0.8l2.7-0.2h0.8h0.3
	h0.2l0.5,0.2h0.2l0.9,0.2H90h1.1l0.3,0.2h0.8h0.8h0.2h0.6l0.8,0.2l1.1,0.2l1.7-0.2h0.8l1.6-0.2l0.5-0.2h0.2h0.5h0.3h0.5h1.1h0.6
	l0.6,0.2l0.8,0.2h0.3l1.3,0.3l1.1,0.2h0.2l0.6,0.2h1.6l1.1-0.2h0.5h0.3l0.6,0.5l1.9,0.5h1.1l0.8,0.3l0.9,0.3l3.5,0.6l0.5,0.2
	l0.6,0.2h0.8h0.6l0.8-0.2l0.3,0.3l0.5,0.3l1.1,0.3l0.9,0.6l0.6,1.3l0.2,0.2l0.9,0.6l0.3,0.5l1.1,0.8l0.3,0.3l0.6,0.3h0.2l0.2,0.2
	l0.6,0.2l0.3,0.3l1.1,0.8v0.2h0.2l0.6,0.5l0.8,0.6l1.6,0.6h0.2l0.9,0.2l0.5-0.3l0.9-0.6l0.2-0.2l0.3-0.2l1.6-0.3l0.6-0.3l0.5-0.2
	h0.2l0.2-0.2l0.9-0.3l0.6-0.2l0.6-0.2l0.9-0.3l0.5-0.2h0.5l0.5-0.2h0.2l1.7-0.2h0.2h1.6h0.3l0.3,0.2h0.9h0.3l0.5,0.2h0.8l0.6-0.2
	h0.2l0.6-0.2l1.6-0.3l0.3,0.2h0.8h0.5h0.2l0.6,0.2h0.2l1.7-0.5h0.2h0.3l0.2,0.2h0.2l0.6-0.2h0.5l0.8,0.2h0.2l0.5,0.2l0.8,0.2h0.5
	l0.8,0.5l0.3,0.2l0.8,0.3l0.6-0.2h0.9h0.5l0.6-0.2l0.5,0.2h0.5l0.6,0.2h0.3h0.3h0.2l0.8-0.6l0.9-0.5l0.9-0.6h0.2l0.9-0.2h0.2h0.5
	l1.3-0.3l0.8-0.6h0.6l1.4-0.3h0.8l0.8-0.3l0.6-0.3l0.2-0.2l0.5-0.3l0.2-0.2l0.6-0.5l0.8-0.8l0.2-0.2v-0.2h0.2h0.5h0.2h0.2h0.2h0.6
	h0.2h0.2l0.8-0.6v-0.2h0.2l0.8-1.1l1.6-2.8l0.8-0.9l0.8-0.5l0.6-0.3l2.5-2l1.6-0.8l0.2-0.2h0.2l0.3-0.3l0.3-0.5l0.3-0.2l0.6,0.2
	l1.1-0.5l0.3-0.6l0.6-0.8l2-1.4l1.1-0.9l0.5-0.2l2.4-0.3h0.2l1.4,1.1h0.8h2l1.6-0.6l0.6-0.3l1.3-0.3l0.2-0.2l0.5-0.3l0.6-0.9
	l0.5-1.3l0.3-1.3l0.3-2v-1.1v-1.3l0.2-1.4V115l-0.3-2.5l-0.3-3.1V109v-0.2l-0.5-2.4l-0.2-0.8l-0.3-1.7l-0.3-1.1l-0.2-0.6l-0.2-0.2
	l-0.3-0.5l-0.8-1.1l-0.9-0.9l-0.6-0.3l-0.3-0.2l-0.2-0.6l0.2-0.6l0.3-0.5l0.5-0.3l0.5-0.5l0.6-0.2l0.5-0.2h0.5l0.5,0.2l0.5,0.8h0.9
	v0.2l0.6-0.5l0.6-0.6l1.4-0.8l0.6-0.2l0.8-0.3l0.3-0.5l0.2-0.5v-0.8l-0.3-1.6l-0.2-0.6v-0.5V90l-0.2-0.2l-0.2-0.5l-0.5-0.3v0.2
	l-1.4,0.2l-0.3-0.3l-0.6-0.5l-1.3-0.5l-1.3-0.5l-0.5,0.5l-0.5,0.2h-0.5h-0.3l-0.3-0.2l-0.3-0.3v-0.5l0.2-0.6l-0.3-0.5l-0.6-0.6
	l-0.3-0.3l-0.6-0.2l-0.2-0.3v-0.5v-0.6l0.2-1.1l-0.2-0.9l-0.3-0.3l-3.3-0.9v-1.3l-0.3-1.1l0.2-0.9l0.3-0.9l0.2-0.8l0.2-0.3l2.4-5
	l1.6-0.5h1.3h0.9h0.2l2.4-0.9l0.2-0.2l0.6-0.3l1.6-1.6l0.2-3.3l1.9-1.3h0.2v0.2l0.6-0.2l0.3-0.2l0.8-0.2l1.6-1.4l1.6-1.3l2-0.9
	l0.5-0.3h1.1h0.2h0.2h0.2l0.2,0.3h0.2l1.1-0.5l0.6-0.5l0.6-0.5l0.5-0.5l0.5-0.2l2.4-2.2l0.8-0.8l2.2-2.4l0.5-2.4l0.3-0.8l2.4-3.8
	l1.6-1.6l0.8-0.6l1.7-2l1.9-2h0.2l0.6-0.6l1.7-1.6h0.2l0.3-0.6l0.8-0.6l0.9-1.1l3.3-3.6l0.2-0.2l0.8-0.8l0.2-0.2l0.2-0.2l0.2-0.2
	l1.1-0.9h0.2l0.8-0.8l0.3-0.3l0.8-0.8l1.3-1.1l0.5-1.1l1.1-0.3l0.5-0.6l0.9-0.3l0.2-0.2l0.2-0.3l1.1-1.3l0.8-0.2l1.4-1.6h0.2
	l-0.2-0.9l1.4-1.1l0.9-0.5l0.6-0.2l0.6-0.6l0.3-0.2l0.6-0.2l0.6-0.6l0.9-0.2l0.3-0.3l0.5-0.2l1.4-0.8l1.3-0.6l0.3-0.8l0.2-0.2
	l0.8-0.5l0.6-0.3h0.3l0.5-0.5l1.6-0.3h0.2l0.3-0.3l1.9-1.1l0.6-0.5l0.6-0.5l0.3-0.6V6.1l0.5-0.5l1.1-0.5l1.4-0.2h0.5h1.9l0.3-0.8
	l0.8-0.6l0.6-0.2h0.5h0.2h0.3l0.2-0.2l0.2-0.2l0.5-0.3l0.8-0.5l0.5-0.2l0.3,0.3h0.3l0.5,0.2l0.5,0.2l0.3,0.3h1.4l0.5,0.8h0.2
	l0.8,0.3h0.8l0.3-0.3l0.2-0.3l1.3-0.5l0.9,0.3l0.3-0.2h0.3h0.5l0.3,0.2h0.8l4.4-0.2h1.3h2.4h0.2h2.8h0.6h0.3l5.8,0.2h0.3h0.3h3.3
	l1.7-0.2h0.3h0.3h1.6h3.4h0.2l6.7-0.6l8.8-0.8l3.5-0.2l3.1-0.2l5-0.2l1.4-0.2h0.6l4.7-0.3l1.7-0.2h0.6l3.8-0.3l0.9-0.2h1.6l1.3-0.2
	h1.3h0.5l0.3-0.2h0.6l-0.5,1.4l-0.2,0.3V2v0.2v0.2l0.2,0.2l0.2,0.3l0.2,0.5h0.2l0.3,0.3v0.2l0.2,0.3L382,5.5l0.2,1.6v0.5v0.2
	L382,7.8V8l-0.3,0.2l-0.2,0.2l-0.2,0.2l-0.2,0.3l-0.2,0.2v0.5l-0.2,0.5V10l-0.2,1.1l-0.2,0.8l-0.2,0.3l-0.2,0.2l-0.3,0.3v0.6v0.3
	l0.2,0.6l0.2,0.2l0.3,0.3l0.2,0.2v0.2l0.2,0.2l0.5,0.2l0.2,0.2l0.2,0.2l0.2,0.3l0.5,0.5h0.2l0.3,0.3v0.2v0.2v0.2v0.2l0.2,0.5V18v0.2
	v0.3l-0.2,0.2l-0.5,0.5l-0.2,0.3v0.5l-0.2,0.6l-0.2,0.2v0.2l-0.2,0.5l-0.5,0.5v0.3v0.3v0.8v0.2l0.2,2v0.2l0.2,0.3l-0.2,0.6l-0.3,0.2
	l0.2,0.2V27l0.2,0.3h-0.3v0.2v0.6l0.2,0.2v0.2v0.2h-0.2h-0.2l-0.2,0.5v0.2v0.2l-0.3,0.6l0.3,0.3v0.2l-0.5,0.3v0.3l0.2,0.2v0.2
	l-0.2,0.2v0.2l-0.2,0.5v0.2l0.5,0.3l0.2,0.3v0.3l0.3,0.5v0.2V34l-0.2,0.2l-0.2,0.2v0.2l0.3,0.3v0.3l0.2,0.5l0.5,0.6l0.3,0.3l0.2,0.2
	v0.2l0.2,0.2v0.2h0.2h0.3l0.3,0.3l0.3,0.3V38v0.2v0.2l0.3,0.3l0.2,0.2v0.2v0.2v0.2l0.2,0.2l0.3,0.2l0.2,0.2V40v0.2v0.2v0.2v0.2
	l0.2,0.2l0.3,0.3l0.5,0.5l0.2,0.8v0.5l0.3,0.6v0.2v0.2v0.3l0.2,0.5l-0.2,0.8l0.3,0.8l0.2,0.3v0.2v0.2l-0.2,0.8l-0.8,2v0.8l-0.2,0.5
	l-0.2,0.2l-0.2,0.3l-0.5,0.6l-0.3,0.3v0.6v0.6l0.5,0.8v0.2v0.2l0.2,0.3l0.2,0.3V56v0.5v0.8l0.2,0.6l0.3,1.1l0.3,0.6l0.2,0.5
	l-0.2,0.8V61l-0.2,0.5l-0.2,0.6l-0.2,0.5h-0.2H385h-0.2l-0.2,0.3l-0.2,0.2l-0.3,0.2v0.2l-0.5,0.5v0.3l-0.2,0.2l-0.2,0.2v0.2v0.3
	l-0.3,0.5v0.2l-0.5,0.3l-0.2,0.3l-0.2,0.2h-0.2l-0.2,0.2l-0.2,0.5h-0.2h-0.2v0.2v0.2v0.2v0.5v0.2l-0.3,0.3v0.2v0.2v0.2V69v0.2
	l-0.2,0.3v0.6v0.2l-0.2,0.6l-0.3,0.5l-0.2,0.2l-0.2,0.3V72v0.5l0.2,0.5v0.2l0.2,0.5l-0.2,0.2V74l-0.2,0.6l-0.2,0.5l-0.5,1.1
	l-0.2,0.8v0.6l-0.3,1.6v0.2l0.5,0.3h0.2l0.3,0.5h0.2l0.2,0.2h0.2l0.2,0.2l0.2,0.2v0.3h0.2v0.2l0.2,0.3v0.5l-0.2,1.3l-0.2,0.8v0.3
	v0.2v0.3l0.3,0.8l0.2,1.4l-0.2,1.3l0.2,0.3l0.2,0.5l0.2,0.6l0.3,0.9l0.2,0.2l0.8,0.9l0.3,0.8l0.2,0.5V93l-0.2,0.8l-0.2,0.3v0.3v0.2
	v0.2l0.5,0.3v0.2h0.2v0.2l-0.2,0.2l-0.2,0.3l-0.3,0.2l-0.3,0.5l-0.2,0.2l-0.2,0.6l0.2,0.2v0.2l0.5,0.3l0.2,0.3l0.2,0.2v0.2l0.2,0.5
	v0.2l0.5,0.5l0.3,0.2l0.3,0.3l0.2,0.6l0.2,0.2l0.2,0.3v0.2L385,102l-0.5,0.8v0.2l-0.3,0.5v0.2v0.2l-0.2,0.6l0.2,0.5v0.3l-0.5,0.6
	l-0.3,0.3l-0.2,0.3l-0.3,0.6v0.3l-0.2,0.2l-0.2,0.2l-0.2,0.2l-0.2,0.3l-0.2,0.2l0.2,0.2v0.2v0.2l-0.2,0.8v0.3l-0.5,0.9v0.5l-0.2,0.3
	l-0.3,0.2v0.2l-0.2,0.2v0.5v0.2l0.6,0.9v0.2l-0.3,0.8l0.2,0.5v0.2l-0.2,0.5l-0.3,0.6v0.2v0.2l0.2,0.2v0.2l0.5,0.2l0.2,0.3l0.8,0.5
	l0.3,0.2h0.2l0.3-0.2l0.5-0.5v-0.2V117v-0.5l-0.2-0.9l0.5-0.2l0.2-0.3V115v-0.2l-0.2-0.5v-0.2l0.3-0.5l-0.2-0.3l0.2-0.2l0.2,0.2h0.2
	l0.3-0.2l0.8,0.2l0.2-0.3h0.9l0.2-0.2h0.5l0.3,0.3l0.3-0.3h0.2v0.2l0.2,0.2v0.6l0.2,0.5h0.2l0.2,0.3l0.2,0.3v0.3v0.2v0.2v0.2
	l-0.3,0.5l0.3,0.2l-0.2,0.2v0.2v0.2h0.2h0.5l0.3,0.2v0.2l0.6,0.2l0.3,0.3l0.2,0.2l0.2,0.2l0.5,0.6l0.2,0.2v0.2h0.2l-0.2,0.2v0.6h0.2
	v0.2h0.2v0.3l0.2,0.2l0.2,0.3l-0.2,0.2v0.2l-0.2,0.2l-0.2,0.2v0.3l0.2,0.2v0.3v1.9v1.7v0.6v1.1v0.9v1.4l0.2,0.9v0.2v0.2v0.6v2.2v0.6
	v0.6v0.2v3.1l0.2,4.5l-0.2,2.4v0.2v0.9v2.4v5.3v0.8v0.6v0.2v0.6v0.8v3v1.1v0.5v0.9v4.7v1.6v0.2v0.5l0.2,2.8v0.3v3v1.9v0.3l-0.3-0.2
	l-0.2,0.2v1.1l0.2,0.5v0.3l-0.2,0.2l-0.2,0.6l0.9,4.5l0.8-0.2l-0.5,1.9v0.2l-0.3,1.4l-1.4,6l-0.3,1.3l-1.4,6.4l-0.6,2.5l-1.6,6.6
	v0.3l-0.5,1.6l-0.5,2.2l-0.5,2.4l-0.2,0.3v0.5L385,222l-0.6,2.7l-0.9,3.8l-0.8,3.6l-0.5,1.6l-0.6,2.8v0.5l-0.6,2.4l0.3,1.4l0.5,1.6
	h0.6v4.1l-0.2,3.5v0.2v0.2v2.2v0.5l-0.2,2.4v0.9v0.2v0.9v0.8l-0.2,2.8v2.7l-0.2,2.7v1.4l-0.2,3.8v0.2v0.3v0.2v1.4v0.3v1.9v0.2v1.7
	v0.3l-0.2,3.6l-0.2,1.3v2.5v0.5l-0.2,1.7v1.7v0.2v0.5v1.1v0.2v0.2v0.2v0.9v0.2v0.2v0.2l-0.2,2.4v1.3v0.2l-0.2,0.9v0.9l-0.2,2.5v0.5
	v0.3v0.6v0.2v0.5v0.2v0.2v0.3v0.6l0.2,0.2l0.5,0.8l0.3,0.5l0.6,0.9h0.2l0.3,0.6l0.2,0.2l0.6,1.1l0.3,0.3l0.2,0.3l0.5,0.6l0.6,1.1
	h-0.2l-0.6,0.5l-0.3,0.2l-0.2,0.2l-0.3,0.2l-0.2,0.2l-0.2,0.2l-0.6,0.3l-0.6,0.5l-0.6,0.5l-0.6,0.3l-0.5,0.3l-0.9,0.6l-0.5,0.3
	l-0.3,0.3h-0.3l-0.9,0.8l-1.1,0.6l-0.2,0.2l-0.3,0.2l-1.3,0.8l-0.5,0.3l-0.2,0.2l-0.8,0.5l-0.8,0.5l-1.9,1.3l0.3,0.6l0.3,0.5
	l0.2,0.3l0.6,0.8l0.8,1.1l0.3,0.6l0.2,0.2l0.2,0.5h0.2l0.2,0.2l0.3,0.5l0.2,0.5h0.2l0.2,0.5l0.3,0.3l0.2,0.2v0.2l0.3,0.3v0.2v0.2
	v0.2l-0.2,0.3v0.3v0.3v0.2v0.5v0.2l0.2,0.2v0.2v0.2l-0.2,0.9l-0.2,0.3l-0.2-0.2h-0.2l-0.3,0.3l-0.3,0.2l-0.2,0.2v0.5l-0.2,0.5
	l-0.2,0.3l-0.8,0.5l-0.3,0.2l-0.5,0.2l-0.2,0.2L371,334l-0.6,0.6l-0.2,0.2l-0.5,0.3h-0.2v0.2h-0.2l-0.2,0.2l-0.2,0.2H369v0.2
	l-0.3,0.3l-0.3,0.5l-0.6,1.1h-0.2v0.2l-0.2,0.2v0.2v0.2l-0.2,0.3v0.8l-0.2,0.6v0.2v0.3v0.2l0.3,0.2l0.2,0.3v0.2v0.2v0.2v0.2v0.2
	h-0.2l-0.2-0.2l-0.2-0.2v-0.2l-0.2-0.3l0.2-0.3l-0.2-0.3h-0.2l-0.2,0.2v0.2l-0.2,0.2v0.2h-0.2l-0.3-0.2l-0.2,0.2l-0.2,0.2l-0.2,0.3
	v0.3v0.2v0.2v0.2v0.2l0.2,0.5h0.2v0.2l0.2,0.2l0.2,0.2h0.2l0.2,0.2l0.2,0.2l0.8,1.1l0.3,0.5h0.3l0.5-0.5l0.2-0.5l0.5-0.8l0.2-0.3
	v-0.2v-0.2v-0.2v-0.2l0.3-0.5l0.2-0.2l0.6-0.8l0.5-0.8v-0.3l-0.2-0.3v-0.3v-0.2l0.9-0.3l2.5,1.1v-0.2h0.2h0.2v-0.2l0.8-0.3l0.2-1.3
	l0.2-0.3l0.6-0.8l0.2-0.3l0.2-0.2l0.5-0.2h0.3h0.3l0.9-0.3l0.3-0.5h0.3l0.5-0.3l0.5-0.2l0.6-0.3l0.5,0.3l0.6,0.3l1.1-0.3l0.3-0.2
	h0.3h0.3l0.9-0.5l0.2-0.3l0.3-1.6l0.3-0.5l0.5,0.3l0.9,0.5h0.2h0.5h0.5l0.6,0.2l0.3,0.3l0.2,0.5v0.3h0.2h1.3l0.2-0.5v-1.4v-0.2v-0.8
	h0.2h0.2h0.2v-0.2l1.3,1.4l0.6,0.5l0.8,0.5h0.3h0.2v-0.2l0.8-0.2h0.3h0.3l0.6,0.2l0.6,0.2h0.5l3.9,1.4h0.2h0.2l0.2-0.2l4.5-1.9v-0.2
	l0.2-0.5v-0.8v-0.9l0.2-0.5V330l0.2-0.2h0.2l0.2-0.2l1.1-0.3h0.2h0.3l0.9-0.2h0.2h0.6h0.3h0.2l0.2,0.2h0.3l0.5,0.3l0.9,0.2v0.2
	l0.2-0.2v-0.2h0.5h0.8l0.6-0.2h0.9l0.6-0.2h0.6h1.3h0.6l0.5,0.2h0.8h0.5h0.2h0.8h0.6h0.2l0.3-0.2h0.2l0.8-0.2h0.2h0.2h0.3l1.7-0.5
	h0.3h0.9l1.4,0.2h0.5h0.3l0.9-0.8l0.3-0.2l2.4-0.8h0.2l1.4-0.5l1.6,0.2l1.9-0.3l2.5-0.6l0.5-0.2l1.1-0.9h0.2l0.2-0.5l0.8-0.5
	l1.6-1.6h0.2h0.2l0.2-0.2l0.6-0.3l0.9-0.5l0.6-0.3l0.2-0.2l0.9-1.1l0.5-0.9l0.3-0.6l0.6-0.2l1.1-0.2h0.2l1.1-0.8h0.2l0.3-0.6
	l1.1-1.3l0.5-0.8l0.3-0.5l1.4-0.3l0.6-0.3l0.2-0.2l0.3-0.2l0.3-0.3l0.5-0.3l0.6-0.3V312h0.2l0.6-0.2h0.2l0.2,0.3h0.3l0.5-0.3
	l0.9-0.3l0.5,0.2v0.2l-0.9,1.6l-0.6,0.8l-0.8,0.6h-0.2l-0.2,0.2l-0.5,0.3l-0.5,0.3l-0.2-0.6V314l-0.3-0.3v-0.2h-0.2h-0.3h-0.2
	l-0.2,0.2l-0.5,0.3v0.2l-0.5,0.9v0.2v0.6v0.2v0.2l0.9,1.1l0.2,0.3h0.2l0.3,0.2l0.6,0.3h0.2v0.2h0.2h0.9l0.3,0.2l-0.2,0.5l-0.2,0.3
	l0.6,1.3l0.5,0.5l0.3,0.3l1.3-0.3h0.6l0.8,0.3l0.8,0.5l0.2,0.2h0.2h0.6l0.2-0.2l0.3-0.2l0.2-0.3l0.3-0.6l0.5-0.3l0.2-0.3h0.2
	l0.5,0.2l0.3,0.2l0.5,0.5l0.3,0.3l0.2,0.6l-0.2,0.6l0.2,0.2l0.8,1.3l0.5,0.5l0.5,0.5l0.2,0.2h0.3h0.3h0.2l0.6-0.5l0.2-0.5l0.2-0.3
	l0.2-0.2l0.8-0.2l0.3,0.3h0.2l0.2-0.2l0.2-0.2l-0.2-0.5v-0.5l0.3-0.2l0.6,0.2l1.3-0.8l0.5-0.5l0.5-0.5l1.3-0.5l0.8-0.3l0.2-0.5h0.2
	v-0.5l-0.2-0.3l0.2-0.6l0.5-0.2l0.5-0.3l0.3-0.2h0.2h0.2l0.3-0.2l0.6-0.2h1.1h0.2l0.2,0.2l0.3,0.2h0.2h0.2h0.9l0.3-0.2l0.5,0.2
	l0.2,0.3l-0.5,0.6l-0.5,0.8l-0.2,0.2l-0.5,0.3l-1.3,0.8l-2,0.6l-0.3,0.2l-1.3,0.6l-3.8,2.2h-0.2h-0.2l-1.7,0.9l-2.7,1.3l-0.6,0.5
	l-0.6,0.3l-0.3,0.2l-1.6,0.8l-0.3,0.2l-2,1.3h-0.2l-0.2,0.2l-1.7,0.9l-1.1,0.6l-1.4,0.8l-1.3,0.6l-0.3,0.2l-2,1.3l-1.4,0.8l-2.7,1.4
	l-4.4,2l-0.2,0.2l-0.3,0.2l-0.3,0.2l-2.5,1.1l-0.8,0.3l-1.7,0.6l-0.2,0.2l-0.5,0.2l-0.9,0.5L440,342l-1.9,0.6l-1.9,0.8l-1.1,0.5
	l-2,0.8l-1.1,0.5l-0.5,0.3h-0.2h-0.2l-0.6,0.2l-0.3,0.3l-5.5,2.4l-3.6,1.7l-3.3,1.7l-0.9,0.6l-1.3,0.6l-0.3,0.2l-0.5,0.3l-0.9,0.3
	l-0.8,0.5l-5,1.7l-0.5,0.2l-0.5,0.2l-0.3,0.2l-1.9,0.6l-0.8,0.2l-0.5,0.3h-0.3l-1.6,0.5l-1.4,0.3h-0.2l-2.7,0.2l-0.2-0.2l-0.3-0.5
	l-0.3-0.5l-2,0.5l-2.5,1.1l-1.9,0.8l-1.7,0.5l-2,0.6l-4.9,1.3h-0.8v-0.2h-0.2h-0.2h-0.2h-0.9h-0.3h-0.5l-1.1,0.2l-0.6,0.2H377
	l-0.3,0.2h-0.2h-0.2H376h-0.2h-1.4h-0.3h-0.3h-0.2h-0.2h-0.3h-0.9h-1.4h-0.9v-0.2v-0.3h-0.6h-0.2H369h-0.3l-0.2,0.2l-0.8,0.2h-0.2
	l-0.2,0.2h-0.3h-0.2l-0.2,0.2h-0.2l-0.6,0.3h-0.2l-0.5,0.2h-0.2l-0.3,0.2l-0.5,0.3l-0.3,0.2l-0.3,0.2l-0.3,0.2h-0.2l-0.2,0.2H363
	l-0.8,0.5L361,365l-2.2,0.9v-0.8l0.2-0.5l-0.3-0.3l-0.2-0.2l-0.3-0.2l-0.2-0.2l-0.2-0.2h-0.2h-0.5l-2,0.3h-0.6l-0.5-0.2v-0.2h-0.2
	v-0.2v-0.2v-0.2l0.3-0.3l0.3-0.6l-0.2-0.3l-0.5-0.5l-0.6-0.2H353l-0.5-0.2l-0.2-0.2v-0.2l-0.3-0.3v-0.2v-0.2v-0.2V360l-0.2-0.2v-0.2
	l0.2-0.3v-0.3v-0.2v-0.2l0.2-0.2v-0.2l0.2-0.3l0.2-0.2l0.2-0.3l0.3-0.3l0.3-0.5v-0.3v-0.3l-0.2-0.5v-0.5L353,355l-0.2-0.2v-0.3
	l0.2-0.5l0.3-0.2v-0.5v-0.2v-0.2h-0.2v-0.2l-0.3-0.2v-0.5v-0.2l0.2-0.3v-0.3v-0.2v-0.2v-0.2l0.2-0.3v-0.5l0.2-1.4l0.2-0.2l0.2-0.5
	l0.5-0.8v-0.2l0.2-0.3l0.2-0.3l0.2-0.3l0.2-0.2l0.3-0.8l0.2-0.3l0.3-0.5l0.6-1.1v-0.3l0.2-0.2l0.6-1.7V341l0.3-0.6l0.6-1.3l0.2-0.6
	l0.3-0.6l0.2-0.5l0.3-1.6l0.2-0.3v-0.2l0.2-0.5l0.2-0.8v-0.5l0.3-0.9v-0.5l0.3-1.4l0.2-0.6l0.2-1.3h-0.5h-0.2h-0.2l-0.3-0.3
	l-0.5-0.2l-0.2-0.2l-1.1-0.5v-0.2l-0.3-0.2h-0.2l-0.3-0.2l-0.2-0.2l-0.3-0.2l-0.5-0.3l-0.6-0.3l-1.1-0.6l-0.3-0.2l-0.8-0.5h-0.2
	l-0.6-0.3l-0.2-0.2l-0.5-0.2l-0.2-0.2l-0.3-0.2l-0.6-0.3v-0.2h-0.2l-0.2-0.2h-0.2l-0.6-0.3l-0.2-0.2l-0.5-0.3h-0.2l-0.6-0.3
	l-0.3-0.2l-0.2-0.2L347,322h-0.2l-0.3-0.3l-0.5-0.2l-0.2-0.2l-0.3-0.2h-0.2v-0.2l-0.8-0.3l-0.3-0.2l-0.2-0.2H344l-0.5-0.3l-0.2-0.2
	h-0.2l-1.1-0.6l-0.8-0.5l-0.8-0.3l-0.5-0.2l-1.3-0.6v-0.2l-0.6-0.2v-0.2l-2.2-1.1l-1.4-0.8l-1.3-0.8l-0.5-0.3l-0.8-0.5l-0.2-0.2
	l-0.3-0.2l-0.5-0.2l-0.6-0.5l-0.2-0.2l-0.3-0.2l-0.3-0.2h-0.2l-0.2-0.2l-1.9-1.1l-0.3-0.3h-0.2l-0.2-0.2l-0.3-0.2l-0.6-0.5l-1.1-0.6
	l-0.8-0.5H324l-0.3-0.3l-1.4-0.8l-1.6-0.9l-0.8-0.3l-1.3-0.8l-0.2-0.2h-0.2l-0.8-0.5l-2-1.3l-2.2-1.3l-0.5-0.2l-0.8-0.5l-0.8-0.5
	l-0.6-0.5l-0.5-0.2v-0.2H310l0.3-0.2v-0.2v-0.2v-0.3l-0.3-0.3h-0.2l-0.2-0.2l-0.2-0.2l-0.2-0.2l-0.2-0.2l-0.2-0.3l-0.2-0.3v-0.3
	l-0.3-0.2l-0.2-0.2h-0.6l-0.2-0.2l-0.2-0.2l-0.2-0.2l-0.2-0.3l-0.2-0.3v-0.3l0.2-0.2l0.3-0.8v-0.2l-0.2-0.2v-0.2l-0.2-0.2H307h-0.2
	l-0.5,0.3l-0.2,0.2l-0.2,0.2h-0.2h-0.2h-0.2l-0.3-0.2h-0.2l-0.3,0.2l-0.5,0.2h-0.3h-0.2l-0.2-0.2l-0.2-0.5h-0.2v-0.2v-0.3v-0.2
	l-0.3-0.3H303h-0.3h-0.2l-0.2,0.2l-0.2,0.2H302v0.2l-0.2,0.5h-0.2h-0.2h-0.2h-0.2l-0.6-0.5l-0.2-0.3l-0.3-0.2l-0.3-0.2h-0.3
	l-0.8,0.3l-0.2,0.2h-0.3l-0.3,0.2l-0.2-0.2h-0.2h-0.2v-0.2l0.2-0.3l0.3-0.5v-0.2v-0.2l-0.2-0.2l-0.2-0.2H297l-0.2-0.2l-0.2-0.3v-0.3
	v-0.3l-0.2-0.3h-0.3h-0.5l-0.2-0.2l-0.3-0.3h-0.2H295l-0.3-0.2l-0.2,0.2l-0.2,0.2l-0.6,0.3h-0.3h-0.2h-0.2h-0.2l-0.6-0.2l-0.2-0.2
	L292,291v-0.2v-0.2v-0.2v-0.2l0.2-0.5v-0.2v-0.2l-0.2-0.3v-0.2v-0.2h-0.2h-0.5H291h-0.2v-0.2v-0.3l0.2-0.3V288h-0.2l-0.2-0.3
	l-0.3-0.3l-0.3-0.3h-0.2l-0.3-0.2h-0.2v-0.2v-0.3l0.2-0.2l0.3-0.2V286v-0.2l-0.2-0.5l-0.5-0.9h-0.2H289l-0.3-0.2l-0.2-0.3l-0.3-0.3
	l-0.2-0.8l-0.3-0.3l-0.5-0.3h-0.2l-0.2-0.3l-0.2-0.3l-0.2-0.2l-0.3-0.3v-0.2l0.2-0.2l0.3-0.2l0.2,0.2h0.2v-0.2h0.2v-0.2h-0.2v-0.2
	v-0.2h0.2l0.2-0.2h0.2h0.2v0.2h0.2h0.2l0.2-0.2v-0.5l-0.3-0.6v-0.2v-0.6V278v-0.5v-0.6l-0.2-0.5l-0.3-0.5h-0.2v-0.2l-0.2-0.2
	l0.2-0.2l0.3-0.3V275v-0.2v-0.5l-0.3-0.6l-0.2-0.3l-0.5-0.5l-0.2-0.3v-0.2l0.2-0.2h0.3l0.6,0.2v-0.2h0.2v-0.2l-0.3-1.1v-0.2v-0.5
	v-0.8v-0.5V269l-0.2-0.3l-0.2-0.2l-0.2-0.5l-0.3-0.2h-0.2v-0.2h-0.3v-0.2H286h-0.2l-0.9,0.2h-0.2h-0.2h-0.2l-0.2-0.2v-0.2v-0.2V267
	v-0.3l0.2-0.3v-0.2l0.2-0.2l0.3-0.5l0.3-0.2l0.5,0.2l0.2-0.2v-0.2l0.2-0.2v-0.2l0.2-0.5v-0.2v-0.2V264H286h-0.2h-0.2l-0.3,0.3h-0.3
	l-0.2-0.2l-0.5-0.5l-0.8-0.3l-0.2-0.2v-0.2v-0.3l0.2-0.5V262l-0.2-0.3l-0.2-0.2l-0.6,0.2h-0.2l-0.6-0.6h-0.2l-0.2,0.2l-0.5,0.2H281
	l-0.3-0.2l-0.2-0.2l-0.2-0.2l-0.2-0.5v-0.6v-0.2l-0.2-0.2h-0.2h-0.2h-0.2v0.2l-0.2,0.3v0.2v0.2h-0.2v0.2h-0.2H279v-0.2l-0.2-0.2
	v-0.2h-0.2v-0.2h-0.2l-0.5-0.2l-0.3,0.2h-0.3v0.2l-0.3,0.5l-0.2,0.3h-0.2l-0.3-0.2l-0.3-0.2l-0.2-0.3l-0.2-0.2h-0.2l-0.3,0.3
	l-0.2,0.2h-0.5l-0.2-0.2v-0.2l-0.2-0.2v-0.2v-0.2l0.2-0.2v-0.2h0.2v-0.2l-0.2-0.6h-0.2l-0.3-0.2l-0.2-0.2l-0.2-0.5v-0.3l0.3-0.3
	v-0.5l-0.2-0.3l-0.3-0.6v-0.3v-0.3l-0.2-0.5v-0.2l-0.2-0.3l-0.6-0.3v-0.2l-0.2-0.3l0.2-0.3l-0.2-0.2h-0.2h-0.2h-0.2v0.2v0.3h-0.2
	h-0.5l-0.2-0.2l-0.3-0.3l-0.2-0.6h-0.2l-0.3-0.5l-0.5-0.2l-0.2-0.2l-0.2-0.2l0.2-0.9v-0.2l-0.2-0.5l-0.3-0.2l-0.5-0.2l-0.3-0.2h-2.8
	h-1.6h-0.3h-2.5h-0.3l-4.2,0.2h-2.8h-0.6h-0.2l-2.7,0.2h-1.1h-3.6h-0.6h-1.3h-0.2h-0.5h-3.6h-2.4h-1.1h-4.2h-1.3h-0.2H230h-0.9
	l-3.3,0.2h-0.2H223h-0.5h-0.6h-0.5h-0.9h-3.6h-3.6h-0.6h-4.1h-0.5h-1.9h-4.9H201h-0.5h-1.9h-0.5h-0.3h-0.2h-0.2h-0.3h-0.3h-0.2h-0.3
	H196h-0.6l-4.9-0.2h-3.8H185h-0.2h-0.9h-0.2h-2.4h-1.7h-0.8h-0.3h-4.1h-1.1h-0.2h-0.3h-0.6H172h-1.4h-2.5h-1.4h-1.4h-0.6h-1.3h-1.1
	h-0.8h-0.6h-0.9h-1.1h-1.1h-1.4h-1.1h-4.4h-1.6h-0.8l-3.9-0.2h-2.8h-0.9h-1.3h-0.5h-1.3h-6.4h-1.6l-5.6-0.2h-1.3h-4.5h-0.5h-0.5
	h-0.3h-2.2h-1.3l-2.4-0.2h-1.1h-0.3h-2h-0.2h-0.6l-1.3-0.2h-0.2h-1.4h-0.2h-0.9h-0.9l-2-0.2H100h-1.1h-1.6h-1.4H95h-2.8h-0.8h-0.2
	h-0.2l-2.2-0.2h-0.9h-1.4h-0.2h-2.2l-4.7-0.2l-3.5-0.2h-0.9h-2.2h-0.6h-0.2h-0.2h-0.6h-1.3l-1.6-0.2h-0.3h-3h-1.1h-2.2h-1.7l-3-0.2
	h-2.8h-0.2h-1.7l-0.8-0.2h-1.6H49l-0.8-0.2h-0.2h-0.3h-0.5l-3.8-0.2h-0.6l-4.1-0.2h-0.9h-1.4h-0.6l-3.5-0.2h-0.3h-0.6h-2.2h-0.5
	l-3-0.2h-2.2h-0.9l-1.1-0.2H18l-1.3-0.2h-1.1h-1.1h-0.6l-0.8-0.2l-3.6-0.2H8.6H8.3H7.5H6.7l-0.8-0.2h-2l-3-0.2H0.4v-1.6v-1.9
	l0.2-3.6l0.2-2.7v-1.1v-1.6v-0.3l0.2-0.6V232v-0.6v-0.3l0.2-4.7v-0.2v-0.6l0.2-1.3V224l2.4-0.9l0.3-0.2l0.3-0.2l2.5-1.3l0.2-0.2
	l0.6-0.3l0.8-0.5h0.2l0.3-0.2l0.5-0.3l0.9-0.6l0.2-0.2l0.8-0.5l0.5-0.3l1.9-1.1l1.1-0.5v-0.2l0.8-0.5l0.3-0.2l1.1-0.8l0.9-0.8
	l0.8-0.5l0.2-0.2l0.3-0.3l1.3-0.5l0.3-0.3l0.6-0.5l0.6-0.6l0.2-0.2l0.9-1.3l0.5-0.5l0.3-0.3l1.1-0.8l1.1-0.9l0.2-0.2l0.6-0.6h0.5
	h0.2h0.3h0.3l0.2-0.2l0.3-0.3h0.2l0.2-0.3l0.6-0.3l0.9-0.3l0.5-0.2l0.2-0.2l0.6-0.6l0.5-0.3l0.8-0.3l0.6-0.3l0.3-0.2l0.6-0.2h0.2
	l1.3-0.5l0.6-0.3h0.5l0.5-0.2l0.3-0.2h0.2h0.2h0.5l0.3-0.2H39V202l0.5-0.6l0.2-0.2l0.2-0.3V200.8z M349.1,357.8h0.6h0.2v0.2l0.2,0.3
	h0.2v0.2l0.2,0.5v0.9l0.3,0.5v0.2l0.2,0.3l0.2,0.2l0.2,0.2l0.2,0.3l-0.3,0.8l-0.5,0.8l-1.3,1.3l-0.2,0.3l-0.3,0.3l-0.2,0.2l-0.8,1.1
	h-0.2l-0.2,0.2l-0.3,0.3l-0.3,0.3l-0.6,0.6l-0.2-0.3h-0.2h-0.2h-0.3l-0.3,0.3l-0.2,0.2l-0.2,0.2l-0.5,0.3l-0.6,0.3h-0.3l-0.6,0.5
	l-0.3,0.2l-0.2,0.2l-0.6,0.2l-0.5,0.5l-0.2,0.2h-0.2h-0.3h-0.3l-0.2,0.2H340v0.2h-0.2l-0.3,0.2h-0.2L339,370l-0.2-0.5l0.2-0.3v-0.2
	h0.2v-0.2l0.5-0.5v-0.3v-0.5l-0.3-0.9l0.3-0.3l0.3-0.3l0.2-0.2l0.3-0.3h0.5h0.2h0.2l0.2-0.2l0.2-0.3l0.2-0.8l0.2-0.8l0.2-0.8
	l0.3-0.6l0.2-0.3l-0.2-1.3H342v-0.3v-0.9l0.3-0.3l0.3-0.5h0.2l0.2-0.2l0.3-0.2h0.5l0.2,0.2l0.5,0.2h0.2l0.5,0.2l0.6-0.2h0.2l0.6-0.2
	h0.6l0.5-0.2h0.2l0.2-0.2h0.2h0.2L349.1,357.8z M479.5,300.2l1.1-0.3l-0.5,0.8l-0.8,0.5l-0.9,0.5l-0.9,0.5l-0.9,0.8l-0.2,0.2
	l-0.2,0.2h-0.2l-2,0.3v-0.5l0.3-0.6l0.2-0.3l0.2-0.3l0.3-0.3h0.6h0.2l0.8-0.5l0.2-0.2h0.6l0.6-0.2l0.5-0.2l0.6-0.2L479.5,300.2z
	 M471.9,316.4v1.6v0.5l-0.2,0.6v0.3l-0.5,0.5l-0.2-0.2V318l-0.5-0.8l-0.2-0.2l-0.9-0.3h-1.1l-0.3-0.2v-0.2l0.2-0.3l0.5-0.3l0.2-0.3
	l0.2-0.6l0.6,0.3l0.9,0.3h0.2l0.9,0.5L471.9,316.4z M368,340.1l0.2-0.2l0.3,0.3v0.2v0.8h-0.2l-0.3-0.3v-0.5V340.1z M368.4,337.9v0.2
	v0.2v0.2h-0.2l-0.3-0.2V338l0.2-0.2v-0.2l0.2-0.2v0.2h0.2V337.9z M351.7,353.7l0.2-0.2v-0.2v0.2h0.2l-0.2,0.3l-0.2,0.5l-0.2,0.2
	v-0.2h-0.2v-0.2L351.7,353.7z"></path><polygon class="st0" points="483.5,278.2 0,278.2 0,265.2 470.5,265.2 470.5,100.3 496.2,100.3 428.3,30.1 344.5,102.3 336,92.5 
	429.1,12.2 526.8,113.3 483.5,113.3 "></polygon><g><path d="M602.2,113.7h-47.4V31.4h47.4v14.3h-29.9v18.1h27.8v14.3h-27.8v21.2h29.9V113.7z"></path><path d="M671.8,113.7h-17.2V76.9c0-4.5-0.8-7.9-2.3-10.2c-1.5-2.3-3.9-3.4-7.2-3.4c-4.4,0-7.6,1.6-9.6,4.8c-2,3.2-3,8.5-3,15.9
		v29.6h-17.2V50.8h13.1l2.3,8h1c1.7-2.9,4.1-5.1,7.3-6.8c3.2-1.6,6.8-2.4,11-2.4c9.4,0,15.8,3.1,19.1,9.2h1.5
		c1.7-2.9,4.2-5.2,7.5-6.8c3.3-1.6,7-2.4,11.1-2.4c7.1,0,12.5,1.8,16.2,5.5c3.7,3.7,5.5,9.5,5.5,17.6v41h-17.2V76.9
		c0-4.5-0.8-7.9-2.3-10.2c-1.5-2.3-3.9-3.4-7.2-3.4c-4.2,0-7.3,1.5-9.4,4.5c-2.1,3-3.1,7.8-3.1,14.3V113.7z"></path><path d="M760.2,114.8c-7.4,0-13.2-2.7-17.4-8h-0.9c0.6,5.2,0.9,8.3,0.9,9.1v25.5h-17.2V50.8h13.9l2.4,8.2h0.8
		c4-6.2,10-9.3,17.8-9.3c7.4,0,13.2,2.9,17.4,8.6c4.2,5.7,6.3,13.7,6.3,23.9c0,6.7-1,12.5-3,17.5c-2,4.9-4.8,8.7-8.4,11.3
		C769.4,113.5,765.1,114.8,760.2,114.8z M755.1,63.3c-4.2,0-7.3,1.3-9.3,3.9c-2,2.6-3,6.9-3,12.9V82c0,6.7,1,11.6,3,14.5
		c2,2.9,5.2,4.4,9.5,4.4c7.7,0,11.5-6.3,11.5-19c0-6.2-0.9-10.8-2.8-13.9C762.1,64.9,759.2,63.3,755.1,63.3z"></path><path d="M795.4,34.5c0-5.6,3.1-8.4,9.3-8.4c6.2,0,9.3,2.8,9.3,8.4c0,2.7-0.8,4.7-2.3,6.2c-1.6,1.5-3.9,2.2-7,2.2
		C798.5,43,795.4,40.2,795.4,34.5z M813.3,113.7h-17.2V50.8h17.2V113.7z"></path><path d="M863.4,49.6c2.3,0,4.3,0.2,5.8,0.5l-1.3,16.1c-1.4-0.4-3.1-0.6-5.1-0.6c-5.5,0-9.7,1.4-12.8,4.2c-3.1,2.8-4.6,6.7-4.6,11.8
		v32h-17.2V50.8h13l2.5,10.6h0.8c1.9-3.5,4.6-6.4,7.9-8.5C855.9,50.7,859.5,49.6,863.4,49.6z"></path><path d="M906.4,114.8c-10.1,0-18-2.8-23.7-8.4c-5.7-5.6-8.5-13.5-8.5-23.7c0-10.5,2.6-18.7,7.9-24.4c5.3-5.8,12.6-8.6,21.8-8.6
		c8.9,0,15.8,2.5,20.8,7.6c4.9,5.1,7.4,12.1,7.4,21v8.3h-40.5c0.2,4.9,1.6,8.7,4.3,11.4c2.7,2.7,6.5,4.1,11.4,4.1
		c3.8,0,7.4-0.4,10.7-1.2s6.9-2,10.6-3.8v13.3c-3,1.5-6.2,2.6-9.6,3.3C915.4,114.4,911.3,114.8,906.4,114.8z M903.9,61.8
		c-3.6,0-6.5,1.2-8.5,3.5c-2.1,2.3-3.2,5.6-3.5,9.8h24.1c-0.1-4.2-1.2-7.5-3.3-9.8S907.6,61.8,903.9,61.8z"></path></g><g><path class="st0" d="M597,208.7h-10.3v-21h-19.3v21H557v-48.7h10.3V179h19.3v-19.1H597V208.7z"></path><path class="st0" d="M641.4,190c0,6.1-1.6,10.8-4.8,14.2c-3.2,3.4-7.7,5.1-13.4,5.1c-3.6,0-6.7-0.8-9.5-2.4
		c-2.7-1.6-4.8-3.8-6.3-6.8c-1.5-2.9-2.2-6.4-2.2-10.3c0-6.1,1.6-10.8,4.8-14.2c3.2-3.4,7.6-5.1,13.4-5.1c3.6,0,6.7,0.8,9.5,2.3
		s4.8,3.8,6.3,6.7S641.4,186.1,641.4,190z M615.6,190c0,3.7,0.6,6.5,1.8,8.4s3.2,2.8,5.9,2.8c2.7,0,4.7-0.9,5.8-2.8
		c1.2-1.9,1.8-4.7,1.8-8.4c0-3.7-0.6-6.5-1.8-8.3c-1.2-1.8-3.2-2.8-5.9-2.8c-2.7,0-4.7,0.9-5.9,2.8S615.6,186.3,615.6,190z"></path><path class="st0" d="M675.1,208.7l-1.4-4.8h-0.5c-1.1,1.7-2.6,3.1-4.6,4c-2,0.9-4.3,1.4-6.8,1.4c-4.4,0-7.7-1.2-9.9-3.5
		c-2.2-2.3-3.3-5.7-3.3-10.1v-24.3h10.2v21.8c0,2.7,0.5,4.7,1.4,6.1c1,1.3,2.5,2,4.6,2c2.8,0,4.9-1,6.2-2.9c1.3-1.9,1.9-5.1,1.9-9.5
		v-17.5h10.2v37.3H675.1z"></path><path class="st0" d="M719.1,197.6c0,3.8-1.3,6.7-4,8.7s-6.6,3-11.9,3c-2.7,0-5-0.2-6.9-0.6c-1.9-0.4-3.7-0.9-5.4-1.6v-8.4
		c1.9,0.9,4,1.6,6.4,2.2s4.5,0.9,6.2,0.9c3.7,0,5.5-1.1,5.5-3.2c0-0.8-0.2-1.5-0.7-2s-1.3-1.1-2.5-1.7c-1.2-0.6-2.8-1.4-4.8-2.2
		c-2.9-1.2-5-2.3-6.3-3.3c-1.3-1-2.3-2.2-2.9-3.5c-0.6-1.3-0.9-3-0.9-4.9c0-3.3,1.3-5.9,3.9-7.7c2.6-1.8,6.2-2.7,10.9-2.7
		c4.5,0,8.9,1,13.1,2.9l-3.1,7.3c-1.9-0.8-3.6-1.5-5.2-2c-1.6-0.5-3.3-0.8-5-0.8c-3,0-4.5,0.8-4.5,2.4c0,0.9,0.5,1.7,1.5,2.4
		c1,0.7,3.1,1.7,6.3,3c2.9,1.2,5,2.3,6.4,3.3c1.4,1,2.4,2.2,3,3.5C718.8,194.2,719.1,195.8,719.1,197.6z"></path><path class="st0" d="M725.8,161.8c0-3.3,1.8-5,5.5-5s5.5,1.7,5.5,5c0,1.6-0.5,2.8-1.4,3.7c-0.9,0.9-2.3,1.3-4.2,1.3
		C727.6,166.8,725.8,165.1,725.8,161.8z M736.4,208.7h-10.2v-37.3h10.2V208.7z"></path><path class="st0" d="M780.2,208.7H770v-21.8c0-2.7-0.5-4.7-1.4-6.1c-1-1.3-2.5-2-4.6-2c-2.8,0-4.9,0.9-6.2,2.9
		c-1.3,1.9-1.9,5.1-1.9,9.5v17.5h-10.2v-37.3h7.8l1.4,4.8h0.6c1.1-1.8,2.7-3.2,4.7-4.1s4.2-1.4,6.8-1.4c4.3,0,7.6,1.2,9.9,3.5
		s3.4,5.7,3.4,10.2V208.7z"></path><path class="st0" d="M822.2,171.4v5.2l-5.8,1.5c1.1,1.7,1.6,3.5,1.6,5.6c0,4-1.4,7.1-4.2,9.4c-2.8,2.2-6.7,3.4-11.6,3.4l-1.8-0.1
		l-1.5-0.2c-1,0.8-1.6,1.7-1.6,2.7c0,1.5,1.9,2.2,5.6,2.2h6.3c4.1,0,7.2,0.9,9.4,2.6c2.1,1.8,3.2,4.3,3.2,7.7
		c0,4.4-1.8,7.7-5.5,10.1c-3.6,2.4-8.9,3.6-15.7,3.6c-5.2,0-9.2-0.9-11.9-2.7s-4.1-4.4-4.1-7.6c0-2.2,0.7-4.1,2.1-5.6
		c1.4-1.5,3.5-2.6,6.2-3.2c-1-0.4-2-1.2-2.7-2.2c-0.8-1-1.2-2.1-1.2-3.2c0-1.4,0.4-2.6,1.2-3.6c0.8-0.9,2-1.9,3.6-2.8
		c-2-0.8-3.5-2.2-4.7-4.1c-1.1-1.9-1.7-4.1-1.7-6.6c0-4.1,1.3-7.2,4-9.4c2.6-2.2,6.4-3.3,11.3-3.3c1,0,2.3,0.1,3.7,0.3
		s2.4,0.3,2.8,0.4H822.2z M793.4,213.9c0,1.4,0.7,2.5,2,3.3c1.3,0.8,3.2,1.2,5.6,1.2c3.6,0,6.5-0.5,8.6-1.5s3.1-2.4,3.1-4.1
		c0-1.4-0.6-2.4-1.8-2.9s-3.1-0.8-5.7-0.8H800c-1.9,0-3.4,0.4-4.7,1.3S793.4,212.5,793.4,213.9z M797.1,183.6c0,2,0.5,3.6,1.4,4.8
		s2.3,1.8,4.2,1.8c1.9,0,3.3-0.6,4.2-1.8s1.3-2.8,1.3-4.8c0-4.5-1.8-6.7-5.5-6.7C799,176.9,797.1,179.1,797.1,183.6z"></path><path class="st0" d="M869.7,208.7l-2-5.1h-0.3c-1.7,2.2-3.5,3.7-5.3,4.5c-1.8,0.8-4.2,1.2-7.1,1.2c-3.6,0-6.4-1-8.5-3.1
		s-3.1-5-3.1-8.7c0-4,1.4-6.9,4.1-8.8c2.8-1.9,6.9-2.9,12.5-3.1l6.5-0.2v-1.6c0-3.8-1.9-5.7-5.8-5.7c-3,0-6.5,0.9-10.5,2.7l-3.4-6.9
		c4.3-2.2,9-3.4,14.3-3.4c5,0,8.8,1.1,11.5,3.3c2.7,2.2,4,5.5,4,9.9v24.8H869.7z M866.7,191.4l-3.9,0.1c-3,0.1-5.2,0.6-6.6,1.6
		c-1.4,1-2.2,2.5-2.2,4.5c0,2.9,1.6,4.3,4.9,4.3c2.4,0,4.2-0.7,5.6-2c1.4-1.4,2.1-3.2,2.1-5.4V191.4z"></path><path class="st0" d="M920.4,208.7h-10.2v-21.8c0-2.7-0.5-4.7-1.4-6.1c-1-1.3-2.5-2-4.6-2c-2.8,0-4.9,0.9-6.2,2.9
		c-1.3,1.9-1.9,5.1-1.9,9.5v17.5H886v-37.3h7.8l1.4,4.8h0.6c1.1-1.8,2.7-3.2,4.7-4.1s4.2-1.4,6.8-1.4c4.3,0,7.6,1.2,9.9,3.5
		s3.4,5.7,3.4,10.2V208.7z"></path><path class="st0" d="M941.8,209.3c-4.4,0-7.8-1.7-10.3-5.1s-3.8-8.1-3.8-14.1c0-6.1,1.3-10.9,3.8-14.3s6-5.1,10.5-5.1
		c4.7,0,8.3,1.8,10.7,5.5h0.3c-0.5-2.8-0.8-5.3-0.8-7.4v-11.9h10.2v51.9h-7.8l-2-4.8h-0.4C950.1,207.5,946.5,209.3,941.8,209.3z
		 M945.4,201.2c2.6,0,4.5-0.8,5.7-2.3c1.2-1.5,1.9-4.1,2-7.7v-1.1c0-4-0.6-6.9-1.9-8.6s-3.2-2.6-6-2.6c-2.3,0-4,1-5.3,2.9
		s-1.9,4.7-1.9,8.4s0.6,6.4,1.9,8.3C941.2,200.3,943,201.2,945.4,201.2z"></path><path class="st0" d="M1032.2,183.8c0,8-2.3,14.2-6.9,18.4c-4.6,4.3-11.2,6.4-19.8,6.4h-13.8v-48.7h15.3c8,0,14.1,2.1,18.5,6.3
		C1030,170.4,1032.2,176.3,1032.2,183.8z M1021.4,184.1c0-10.5-4.6-15.7-13.9-15.7h-5.5v31.7h4.4
		C1016.5,200.1,1021.4,194.8,1021.4,184.1z"></path><path class="st0" d="M1057.4,209.3c-6,0-10.7-1.7-14.1-5c-3.4-3.3-5.1-8-5.1-14.1c0-6.2,1.6-11.1,4.7-14.5
		c3.1-3.4,7.4-5.1,12.9-5.1c5.3,0,9.4,1.5,12.3,4.5s4.4,7.1,4.4,12.4v4.9h-24c0.1,2.9,1,5.1,2.6,6.8s3.8,2.4,6.7,2.4
		c2.2,0,4.4-0.2,6.4-0.7s4.1-1.2,6.3-2.2v7.9c-1.8,0.9-3.7,1.6-5.7,2S1060.3,209.3,1057.4,209.3z M1056,177.9
		c-2.2,0-3.8,0.7-5.1,2.1c-1.2,1.4-1.9,3.3-2.1,5.8h14.3c0-2.5-0.7-4.5-2-5.8C1059.9,178.6,1058.1,177.9,1056,177.9z"></path><path class="st0" d="M1088.5,208.7l-14.2-37.3h10.6l7.2,21.2c0.8,2.7,1.3,5.2,1.5,7.6h0.2c0.1-2.1,0.6-4.7,1.5-7.6l7.2-21.2h10.6
		l-14.2,37.3H1088.5z"></path><path class="st0" d="M1133.7,209.3c-6,0-10.7-1.7-14.1-5c-3.4-3.3-5.1-8-5.1-14.1c0-6.2,1.6-11.1,4.7-14.5
		c3.1-3.4,7.4-5.1,12.9-5.1c5.3,0,9.4,1.5,12.3,4.5s4.4,7.1,4.4,12.4v4.9h-24c0.1,2.9,1,5.1,2.6,6.8c1.6,1.6,3.8,2.4,6.7,2.4
		c2.2,0,4.4-0.2,6.4-0.7s4.1-1.2,6.3-2.2v7.9c-1.8,0.9-3.7,1.6-5.7,2S1136.6,209.3,1133.7,209.3z M1132.2,177.9
		c-2.2,0-3.8,0.7-5.1,2.1c-1.2,1.4-1.9,3.3-2.1,5.8h14.3c0-2.5-0.7-4.5-2-5.8C1136.1,178.6,1134.4,177.9,1132.2,177.9z"></path><path class="st0" d="M1166.6,208.7h-10.2v-51.9h10.2V208.7z"></path><path class="st0" d="M1210.2,190c0,6.1-1.6,10.8-4.8,14.2c-3.2,3.4-7.7,5.1-13.4,5.1c-3.6,0-6.7-0.8-9.5-2.4
		c-2.7-1.6-4.8-3.8-6.3-6.8c-1.5-2.9-2.2-6.4-2.2-10.3c0-6.1,1.6-10.8,4.8-14.2c3.2-3.4,7.6-5.1,13.4-5.1c3.6,0,6.7,0.8,9.5,2.3
		c2.7,1.6,4.8,3.8,6.3,6.7S1210.2,186.1,1210.2,190z M1184.4,190c0,3.7,0.6,6.5,1.8,8.4c1.2,1.9,3.2,2.8,5.9,2.8
		c2.7,0,4.7-0.9,5.8-2.8s1.8-4.7,1.8-8.4c0-3.7-0.6-6.5-1.8-8.3c-1.2-1.8-3.2-2.8-5.9-2.8c-2.7,0-4.7,0.9-5.9,2.8
		C1185,183.5,1184.4,186.3,1184.4,190z"></path><path class="st0" d="M1238,209.3c-4.4,0-7.8-1.6-10.3-4.8h-0.5c0.4,3.1,0.5,4.9,0.5,5.4v15.1h-10.2v-53.7h8.3l1.4,4.8h0.5
		c2.4-3.7,5.9-5.5,10.6-5.5c4.4,0,7.8,1.7,10.3,5.1s3.7,8.1,3.7,14.2c0,4-0.6,7.4-1.8,10.4c-1.2,2.9-2.8,5.2-5,6.7
		S1240.9,209.3,1238,209.3z M1235,178.8c-2.5,0-4.3,0.8-5.5,2.3c-1.2,1.5-1.8,4.1-1.8,7.7v1.1c0,4,0.6,6.9,1.8,8.6s3.1,2.6,5.7,2.6
		c4.6,0,6.8-3.8,6.8-11.3c0-3.7-0.6-6.4-1.7-8.3C1239.2,179.8,1237.4,178.8,1235,178.8z"></path><path class="st0" d="M1293.3,208.7h-10.2v-21.8c0-2.7-0.4-4.7-1.3-6.1s-2.3-2-4.2-2c-2.6,0-4.5,1-5.7,2.9c-1.2,1.9-1.8,5.1-1.8,9.4
		v17.5h-10.2v-37.3h7.8l1.4,4.8h0.6c1-1.7,2.4-3.1,4.3-4c1.9-1,4.1-1.5,6.5-1.5c5.6,0,9.4,1.8,11.3,5.5h0.9c1-1.7,2.5-3.1,4.4-4
		c1.9-1,4.1-1.4,6.6-1.4c4.2,0,7.4,1.1,9.6,3.3c2.2,2.2,3.2,5.6,3.2,10.4v24.3h-10.2v-21.8c0-2.7-0.5-4.7-1.3-6.1
		c-0.9-1.3-2.3-2-4.2-2c-2.5,0-4.4,0.9-5.6,2.7c-1.2,1.8-1.8,4.6-1.8,8.5V208.7z"></path><path class="st0" d="M1342.8,209.3c-6,0-10.7-1.7-14.1-5c-3.4-3.3-5.1-8-5.1-14.1c0-6.2,1.6-11.1,4.7-14.5
		c3.1-3.4,7.4-5.1,12.9-5.1c5.3,0,9.4,1.5,12.3,4.5s4.4,7.1,4.4,12.4v4.9h-24c0.1,2.9,1,5.1,2.6,6.8c1.6,1.6,3.8,2.4,6.7,2.4
		c2.2,0,4.4-0.2,6.4-0.7s4.1-1.2,6.3-2.2v7.9c-1.8,0.9-3.7,1.6-5.7,2S1345.7,209.3,1342.8,209.3z M1341.4,177.9
		c-2.2,0-3.8,0.7-5.1,2.1c-1.2,1.4-1.9,3.3-2.1,5.8h14.3c0-2.5-0.7-4.5-2-5.8C1345.3,178.6,1343.5,177.9,1341.4,177.9z"></path><path class="st0" d="M1400,208.7h-10.2v-21.8c0-2.7-0.5-4.7-1.4-6.1s-2.5-2-4.6-2c-2.8,0-4.9,0.9-6.2,2.9c-1.3,1.9-1.9,5.1-1.9,9.5
		v17.5h-10.2v-37.3h7.8l1.4,4.8h0.6c1.1-1.8,2.7-3.2,4.7-4.1s4.2-1.4,6.8-1.4c4.3,0,7.6,1.2,9.9,3.5c2.2,2.3,3.4,5.7,3.4,10.2V208.7
		z"></path><path class="st0" d="M1424.8,201.2c1.8,0,3.9-0.4,6.4-1.2v7.6c-2.5,1.1-5.6,1.7-9.3,1.7c-4.1,0-7-1-8.9-3.1
		c-1.9-2.1-2.8-5.1-2.8-9.3v-18h-4.9v-4.3l5.6-3.4l2.9-7.9h6.5v7.9h10.4v7.6h-10.4v18c0,1.4,0.4,2.5,1.2,3.2
		C1422.4,200.9,1423.5,201.2,1424.8,201.2z"></path><path class="st0" d="M577.7,236.1c-3.9,0-6.9,1.5-9,4.4c-2.1,2.9-3.2,7-3.2,12.2c0,10.9,4.1,16.3,12.2,16.3c3.4,0,7.6-0.9,12.4-2.6
		v8.7c-4,1.7-8.5,2.5-13.4,2.5c-7.1,0-12.5-2.1-16.3-6.5c-3.8-4.3-5.6-10.5-5.6-18.5c0-5.1,0.9-9.5,2.8-13.3c1.8-3.8,4.5-6.7,8-8.8
		c3.5-2,7.5-3.1,12.2-3.1c4.7,0,9.5,1.1,14.3,3.4l-3.3,8.4c-1.8-0.9-3.7-1.6-5.5-2.3C581.3,236.4,579.5,236.1,577.7,236.1z"></path><path class="st0" d="M632.1,258.2c0,6.1-1.6,10.8-4.8,14.2s-7.7,5.1-13.4,5.1c-3.6,0-6.7-0.8-9.5-2.4c-2.7-1.6-4.8-3.8-6.3-6.8
		c-1.5-2.9-2.2-6.4-2.2-10.3c0-6.1,1.6-10.8,4.8-14.2c3.2-3.4,7.6-5.1,13.4-5.1c3.6,0,6.7,0.8,9.5,2.3s4.8,3.8,6.3,6.7
		S632.1,254.3,632.1,258.2z M606.4,258.2c0,3.7,0.6,6.5,1.8,8.4s3.2,2.8,5.9,2.8c2.7,0,4.7-0.9,5.8-2.8s1.8-4.7,1.8-8.4
		c0-3.7-0.6-6.5-1.8-8.3s-3.2-2.8-5.9-2.8c-2.7,0-4.7,0.9-5.9,2.8C607,251.8,606.4,254.5,606.4,258.2z"></path><path class="st0" d="M660.3,239c1.4,0,2.5,0.1,3.4,0.3l-0.8,9.5c-0.8-0.2-1.8-0.3-3-0.3c-3.2,0-5.8,0.8-7.6,2.5
		c-1.8,1.7-2.7,4-2.7,7v19h-10.2v-37.3h7.7l1.5,6.3h0.5c1.2-2.1,2.7-3.8,4.7-5.1C655.8,239.6,658,239,660.3,239z"></path><path class="st0" d="M689.8,277.6c-4.4,0-7.8-1.6-10.3-4.8H679c0.4,3.1,0.5,4.9,0.5,5.4v15.1h-10.2v-53.7h8.3l1.4,4.8h0.5
		c2.4-3.7,5.9-5.5,10.6-5.5c4.4,0,7.8,1.7,10.3,5.1s3.7,8.1,3.7,14.2c0,4-0.6,7.4-1.8,10.4c-1.2,2.9-2.8,5.2-5,6.7
		C695.2,276.8,692.7,277.6,689.8,277.6z M686.8,247.1c-2.5,0-4.3,0.8-5.5,2.3c-1.2,1.5-1.8,4.1-1.8,7.7v1.1c0,4,0.6,6.9,1.8,8.6
		c1.2,1.7,3.1,2.6,5.6,2.6c4.6,0,6.8-3.8,6.8-11.3c0-3.7-0.6-6.4-1.7-8.3C691,248,689.2,247.1,686.8,247.1z"></path><path class="st0" d="M745.9,258.2c0,6.1-1.6,10.8-4.8,14.2s-7.7,5.1-13.4,5.1c-3.6,0-6.7-0.8-9.5-2.4c-2.7-1.6-4.8-3.8-6.3-6.8
		s-2.2-6.4-2.2-10.3c0-6.1,1.6-10.8,4.8-14.2c3.2-3.4,7.6-5.1,13.4-5.1c3.6,0,6.7,0.8,9.5,2.3s4.8,3.8,6.3,6.7
		S745.9,254.3,745.9,258.2z M720.1,258.2c0,3.7,0.6,6.5,1.8,8.4s3.2,2.8,5.9,2.8c2.7,0,4.7-0.9,5.8-2.8c1.2-1.9,1.8-4.7,1.8-8.4
		c0-3.7-0.6-6.5-1.8-8.3c-1.2-1.8-3.2-2.8-5.9-2.8c-2.7,0-4.7,0.9-5.9,2.8C720.7,251.8,720.1,254.5,720.1,258.2z"></path><path class="st0" d="M774.1,239c1.4,0,2.5,0.1,3.4,0.3l-0.8,9.5c-0.8-0.2-1.8-0.3-3-0.3c-3.2,0-5.8,0.8-7.6,2.5
		c-1.8,1.7-2.7,4-2.7,7v19h-10.2v-37.3h7.7l1.5,6.3h0.5c1.2-2.1,2.7-3.8,4.7-5.1C769.6,239.6,771.8,239,774.1,239z"></path><path class="st0" d="M806.2,276.9l-2-5.1h-0.3c-1.7,2.2-3.5,3.7-5.3,4.5c-1.8,0.8-4.2,1.2-7.1,1.2c-3.6,0-6.4-1-8.5-3.1
		c-2.1-2-3.1-5-3.1-8.7c0-4,1.4-6.9,4.2-8.8c2.8-1.9,6.9-2.9,12.5-3.1l6.5-0.2v-1.6c0-3.8-1.9-5.7-5.8-5.7c-3,0-6.5,0.9-10.5,2.7
		l-3.4-6.9c4.3-2.2,9-3.4,14.3-3.4c5,0,8.8,1.1,11.5,3.3c2.7,2.2,4,5.5,4,9.9v24.8H806.2z M803.2,259.7l-3.9,0.1
		c-3,0.1-5.2,0.6-6.6,1.6c-1.4,1-2.2,2.5-2.2,4.5c0,2.9,1.6,4.3,4.9,4.3c2.4,0,4.2-0.7,5.7-2c1.4-1.4,2.1-3.2,2.1-5.4V259.7z"></path><path class="st0" d="M838.2,269.5c1.8,0,3.9-0.4,6.4-1.2v7.6c-2.5,1.1-5.6,1.7-9.3,1.7c-4.1,0-7-1-8.9-3.1
		c-1.9-2.1-2.8-5.1-2.8-9.3v-18h-4.9V243l5.6-3.4l2.9-7.9h6.5v7.9h10.4v7.6h-10.4v18c0,1.4,0.4,2.5,1.2,3.2
		C835.7,269.2,836.8,269.5,838.2,269.5z"></path><path class="st0" d="M850.5,230c0-3.3,1.8-5,5.5-5s5.5,1.7,5.5,5c0,1.6-0.5,2.8-1.4,3.7c-0.9,0.9-2.3,1.3-4.2,1.3
		C852.3,235,850.5,233.4,850.5,230z M861.1,276.9h-10.2v-37.3h10.2V276.9z"></path><path class="st0" d="M904.5,258.2c0,6.1-1.6,10.8-4.8,14.2s-7.7,5.1-13.4,5.1c-3.6,0-6.7-0.8-9.5-2.4c-2.7-1.6-4.8-3.8-6.3-6.8
		s-2.2-6.4-2.2-10.3c0-6.1,1.6-10.8,4.8-14.2c3.2-3.4,7.6-5.1,13.4-5.1c3.6,0,6.7,0.8,9.5,2.3s4.8,3.8,6.3,6.7
		S904.5,254.3,904.5,258.2z M878.7,258.2c0,3.7,0.6,6.5,1.8,8.4s3.2,2.8,5.9,2.8c2.7,0,4.7-0.9,5.9-2.8c1.2-1.9,1.8-4.7,1.8-8.4
		c0-3.7-0.6-6.5-1.8-8.3c-1.2-1.8-3.2-2.8-5.9-2.8c-2.7,0-4.7,0.9-5.9,2.8C879.3,251.8,878.7,254.5,878.7,258.2z"></path><path class="st0" d="M946.2,276.9h-10.2v-21.8c0-2.7-0.5-4.7-1.4-6.1c-1-1.3-2.5-2-4.6-2c-2.8,0-4.9,0.9-6.2,2.9
		c-1.3,1.9-1.9,5.1-1.9,9.5v17.5h-10.2v-37.3h7.8l1.4,4.8h0.6c1.1-1.8,2.7-3.2,4.7-4.1s4.2-1.4,6.8-1.4c4.3,0,7.6,1.2,9.9,3.5
		c2.2,2.3,3.4,5.7,3.4,10.2V276.9z"></path></g></svg>